<?xml version="1.0" standalone="no"?>
<!DOCTYPE svg PUBLIC "-//W3C//DTD SVG 20010904//EN"
 "http://www.w3.org/TR/2001/REC-SVG-20010904/DTD/svg10.dtd">
<svg version="1.0" xmlns="http://www.w3.org/2000/svg"
 width="374.000000pt" height="374.000000pt" viewBox="0 0 374.000000 374.000000"
 preserveAspectRatio="xMidYMid meet">
<metadata>
Created by potrace 1.14, written by Peter Selinger 2001-2017
</metadata>
<g transform="translate(0.000000,374.000000) scale(0.100000,-0.100000)"
fill="#000000" stroke="none">
<path d="M1505 3045 c-209 -129 -393 -243 -410 -254 -28 -18 -350 -216 -407
-250 -126 -76 -168 -103 -168 -109 0 -5 17 -24 38 -44 34 -35 42 -37 107 -40
l70 -3 0 -180 c1 -192 5 -213 40 -260 22 -30 22 -30 24 -506 1 -426 0 -478
-14 -489 -22 -19 -55 -85 -55 -111 0 -16 -5 -20 -19 -16 -37 9 -49 -9 -46 -68
l3 -55 -63 0 -64 0 3 -50 c1 -28 -1 -55 -5 -61 -4 -7 -31 -12 -63 -11 l-57 0
3 -62 3 -61 805 2 c443 1 1108 3 1478 4 l672 1 0 62 0 61 -52 0 c-29 -1 -57 0
-63 2 -6 2 -9 29 -7 62 l4 59 -57 1 c-30 0 -59 2 -64 5 -4 3 -7 30 -6 60 l2
56 -42 0 c-40 0 -43 2 -49 33 -3 17 -16 48 -28 67 -21 35 -22 41 -23 505 l-1
470 28 51 c15 28 29 62 30 77 1 15 7 28 13 30 6 3 10 63 9 166 0 88 2 161 5
162 4 0 31 2 61 3 60 3 83 14 118 57 l23 29 -53 32 c-29 18 -143 88 -253 155
-110 67 -236 144 -280 171 -647 395 -791 482 -801 482 -5 -1 -180 -106 -389
-235z m-273 -1069 c4 -20 19 -52 33 -70 l25 -33 0 -472 0 -472 -31 -38 c-18
-24 -31 -51 -32 -73 l-2 -34 -60 1 -59 0 -17 48 c-10 26 -23 55 -30 64 -10 12
-13 120 -14 497 l-1 481 22 30 c22 30 46 99 38 108 -3 2 23 4 58 3 l62 -2 8
-38z m501 -16 c21 -53 21 -72 24 -553 3 -479 3 -499 -16 -526 -11 -14 -22 -42
-26 -61 l-6 -35 -56 0 -56 1 -12 40 c-6 21 -20 52 -30 68 -18 26 -19 58 -20
505 l-1 476 23 28 c27 34 47 98 32 107 -5 4 20 6 56 6 l66 -1 22 -55z m468 23
c3 -17 16 -48 28 -68 21 -36 21 -44 21 -515 0 -377 -3 -481 -13 -492 -20 -21
-49 -87 -42 -98 8 -13 -7 -18 -70 -23 l-50 -5 -1 34 c0 19 -11 48 -24 66 l-23
32 -2 480 -1 481 22 30 c22 30 46 100 38 108 -3 3 21 4 53 3 56 -1 57 -2 64
-33z m490 1 c3 -18 16 -47 28 -67 21 -34 21 -41 21 -514 0 -470 0 -481 -21
-506 -11 -15 -26 -45 -32 -68 l-12 -41 -60 -2 -60 -1 -2 33 c-1 18 -12 49 -25
70 l-23 37 0 478 c0 263 3 481 8 484 13 8 47 81 49 107 2 22 6 23 62 22 59 -1
60 -2 67 -32z m-311 -388 c1 -125 -1 -230 -4 -234 -3 -3 -6 102 -6 233 0 131
2 236 5 234 2 -3 5 -108 5 -233z m492 -343 c2 -154 0 -279 -4 -276 -5 2 -7
196 -6 431 1 235 4 360 5 277 2 -82 4 -277 5 -432z m-490 30 c2 -24 0 -43 -4
-43 -5 0 -7 26 -7 58 1 61 6 55 11 -15z m1 -93 c-3 -11 -7 -20 -9 -20 -2 0 -4
9 -4 20 0 11 4 20 9 20 5 0 7 -9 4 -20z m2 -39 c3 -5 1 -12 -5 -16 -5 -3 -10
1 -10 9 0 18 6 21 15 7z m-3 -56 c3 -14 1 -25 -3 -25 -5 0 -9 11 -9 25 0 14 2
25 4 25 2 0 6 -11 8 -25z m0 -85 c3 -17 2 -33 -2 -35 -3 -2 -7 12 -8 31 -3 42
4 45 10 4z"/>
</g>
</svg>
